<svg xmlns="http://www.w3.org/2000/svg" xmlns:xlink="http://www.w3.org/1999/xlink" viewBox="0 0 487.33 512"><defs><style>.a{fill:#1c9ad1;}.b{fill:url(#a);}</style><linearGradient id="a" x1="255.55" y1="273.53" x2="255.55" y2="512" gradientUnits="userSpaceOnUse"><stop offset="0" stop-color="#2a7db3"/><stop offset="0.3" stop-color="#2d86b7"/><stop offset="0.8" stop-color="#349ec3"/><stop offset="1" stop-color="#37aac9"/></linearGradient></defs><path class="a" d="M406.62,0H104.5c-22,0-41.2,19.23-41.2,41.2V346.58A100.49,100.49,0,0,1,93,342.11h1.06a102.74,102.74,0,0,1,6.62-18.31,116,116,0,0,1,44.73-49.14H129.21c-5.49,0-11-5.49-11-11v-33c0-5.49,5.49-11,11-11h33c5.5,0,11,5.49,11,11V262a134.22,134.22,0,0,1,41.23-6.48,131.24,131.24,0,0,1,13.7.71V230.71c0-5.49,5.5-11,11-11h33c5.49,0,11,5.49,11,11v33A11.31,11.31,0,0,1,278.7,272a121.48,121.48,0,0,1,27.45,20.83,113.13,113.13,0,0,1,25.56,40q3.09-.84,6.25-1.5V230.71c0-5.49,5.49-11,11-11h33c5.5,0,11,5.49,11,11V334.18c2.28.72,4.56,1.55,6.81,2.45A98.7,98.7,0,0,1,438,363.43a90.38,90.38,0,0,1,9.78,13.51V41.2C447.82,19.23,428.59,0,406.62,0ZM392.89,153.81c0,5.49-5.49,11-11,11H129.21c-5.49,0-11-5.5-11-11V65.92c0-5.49,5.49-11,11-11H381.9c5.5,0,11,5.5,11,11Z" transform="translate(-11.89)"/><path class="b" d="M465,413.6h0a58.25,58.25,0,0,0-8.16-2.47,69.61,69.61,0,0,0-8.21-1.3,82.08,82.08,0,0,0-18.92-35.95A94.48,94.48,0,0,0,393.05,349a103.15,103.15,0,0,0-18.71-5.32,104.55,104.55,0,0,0-32.78-.81,107.86,107.86,0,0,0-13.37,2.63,104.68,104.68,0,0,0-24.38-37.17,118.19,118.19,0,0,0-40.57-26,130.52,130.52,0,0,0-47-8.73,129.32,129.32,0,0,0-64.1,16.84c-19,10.92-34.69,26.8-44.37,46.68a93.77,93.77,0,0,0-6.31,17h-1c-34.18,0-66.74,17.76-81.24,47.48a74.31,74.31,0,0,0-5.55,15.58,70.26,70.26,0,0,0-1.81,15.79A73.15,73.15,0,0,0,26,475.76C35.21,488.45,48.56,499,65.3,505.4a95.07,95.07,0,0,0,33.82,6.47h0l347.88.13.55-.13a59.38,59.38,0,0,0,28-9.87,55.6,55.6,0,0,0,18.9-21.47,45.07,45.07,0,0,0,4.72-19.9v-.31C499.33,440.68,486.39,422,465,413.6Z" transform="translate(-11.89)"/></svg>