<svg xmlns="http://www.w3.org/2000/svg" xmlns:xlink="http://www.w3.org/1999/xlink" viewBox="0 0 487.13 512"><defs><style>.a{fill:#dadada;}.b{fill:url(#a);}</style><linearGradient id="a" x1="255.55" y1="269.53" x2="255.55" y2="512" gradientUnits="userSpaceOnUse"><stop offset="0" stop-color="#ededed"/><stop offset="0.99" stop-color="#f6f6f6"/><stop offset="1" stop-color="#f6f6f6"/></linearGradient></defs><path class="a" d="M406.62,0H104.5c-22,0-41.2,19.23-41.2,41.2V346.58A100.49,100.49,0,0,1,93,342.11h1.06a102.74,102.74,0,0,1,6.62-18.31,116,116,0,0,1,44.73-49.14H129.21c-5.49,0-11-5.49-11-11v-33c0-5.49,5.49-11,11-11h33c5.5,0,11,5.49,11,11V262a134.22,134.22,0,0,1,41.23-6.48,131.24,131.24,0,0,1,13.7.71V230.71c0-5.49,5.5-11,11-11h33c5.49,0,11,5.49,11,11v33A11.31,11.31,0,0,1,278.7,272a121.48,121.48,0,0,1,27.45,20.83,113.13,113.13,0,0,1,25.56,40q3.09-.84,6.25-1.5V230.71c0-5.49,5.49-11,11-11h33c5.5,0,11,5.49,11,11V334.18c2.28.72,4.56,1.55,6.81,2.45A98.7,98.7,0,0,1,438,363.43a90.38,90.38,0,0,1,9.78,13.51V41.2C447.82,19.23,428.59,0,406.62,0ZM392.89,153.81c0,5.49-5.49,11-11,11H129.21c-5.49,0-11-5.5-11-11V65.92c0-5.49,5.49-11,11-11H381.9c5.5,0,11,5.5,11,11Z" transform="translate(-11.99)"/><path class="b" d="M464.87,412h-.05a56.76,56.76,0,0,0-8.16-2.51,67.53,67.53,0,0,0-8.2-1.32,83.78,83.78,0,0,0-18.92-36.55A94.2,94.2,0,0,0,393,346.24a101.55,101.55,0,0,0-18.7-5.41,103.74,103.74,0,0,0-19-1.75,104.55,104.55,0,0,0-27.1,3.6,106.68,106.68,0,0,0-24.37-37.8,118.19,118.19,0,0,0-40.56-26.47,130.6,130.6,0,0,0-23.33-6.69,128.32,128.32,0,0,0-87.66,14.94c-19,11.1-34.69,27.24-44.36,47.46a97.44,97.44,0,0,0-6.31,17.3h-1c-34.17,0-66.71,18.07-81.21,48.27a76.68,76.68,0,0,0-5.54,15.85A72,72,0,0,0,12,431.6a75.19,75.19,0,0,0,14.15,43.55,86.32,86.32,0,0,0,39.24,30.14,93.85,93.85,0,0,0,33.8,6.58h0L447,512l.55-.13a58.81,58.81,0,0,0,28-10A56.35,56.35,0,0,0,494.4,480a46.38,46.38,0,0,0,4.72-20.23v-.32C499.22,439.49,486.29,420.47,464.87,412Z" transform="translate(-11.99)"/></svg>